<svg id="Group_1338" data-name="Group 1338" xmlns="http://www.w3.org/2000/svg" width="88.362" height="79.526" viewBox="0 0 88.362 79.526">
  <path id="Path_1456" data-name="Path 1456" d="M31.276,116.073H10.425A9.863,9.863,0,0,1,3.04,112.91,10.677,10.677,0,0,1,0,105.228V83.54a10.672,10.672,0,0,1,3.04-7.681A9.865,9.865,0,0,1,10.425,72.7H22.588a4.932,4.932,0,0,0,3.692-1.581,5.336,5.336,0,0,0,1.52-3.841V65.466a14.219,14.219,0,0,0-4.072-10.223A13.139,13.139,0,0,0,13.9,51.008H10.425a3.281,3.281,0,0,1-2.444-1.074A3.544,3.544,0,0,1,6.95,47.393V40.162a3.547,3.547,0,0,1,1.032-2.542,3.282,3.282,0,0,1,2.444-1.074H13.9a26.192,26.192,0,0,1,10.779,2.288,27.967,27.967,0,0,1,8.878,6.185A29.243,29.243,0,0,1,39.5,54.255a29.151,29.151,0,0,1,2.2,11.211v39.763a10.674,10.674,0,0,1-3.04,7.681A9.861,9.861,0,0,1,31.276,116.073Z" transform="translate(0 -36.547)" fill="#fff"/>
  <path id="Path_1457" data-name="Path 1457" d="M294.476,112.91a9.86,9.86,0,0,1-7.384,3.163h-20.85a9.861,9.861,0,0,1-7.384-3.163,10.677,10.677,0,0,1-3.04-7.682V83.54a10.674,10.674,0,0,1,3.04-7.681,9.862,9.862,0,0,1,7.384-3.163H278.4a4.934,4.934,0,0,0,3.693-1.581,5.342,5.342,0,0,0,1.52-3.841V65.466a14.217,14.217,0,0,0-4.073-10.223,13.137,13.137,0,0,0-9.828-4.235h-3.475a3.279,3.279,0,0,1-2.443-1.074,3.543,3.543,0,0,1-1.032-2.542V40.162a3.546,3.546,0,0,1,1.032-2.542,3.279,3.279,0,0,1,2.443-1.074h3.475A26.194,26.194,0,0,1,280.5,38.835a27.973,27.973,0,0,1,8.877,6.185,29.789,29.789,0,0,1,8.145,20.446v39.763A10.672,10.672,0,0,1,294.476,112.91Z" transform="translate(-209.155 -36.547)" fill="#fff"/>
</svg>
