<svg xmlns="http://www.w3.org/2000/svg" width="59.517" height="63.196" viewBox="0 0 59.517 63.196">
  <g id="discussion" transform="translate(-0.5)">
    <path id="Path_2245" data-name="Path 2245" d="M60.015,263.975c0-.011,0-.022,0-.033l-.652-8.511a3.03,3.03,0,0,0-1.453-2.366l-.149-.09-.388-2.845a4.545,4.545,0,0,0,1.195-1.533c.01-.021.02-.041.028-.063a4.492,4.492,0,0,0,.412-1.882v-3.427a3.527,3.527,0,0,0-3.524-3.523h-2a3.53,3.53,0,0,0-3.417,2.665.937.937,0,0,0-.041.089.922.922,0,0,0-.053.486c-.007.093-.012.187-.012.282v3.427a4.521,4.521,0,0,0,2.074,3.8l-.257,2.564a.921.921,0,0,0-.146.138l-5.595,6.7-3.876-.014a.865.865,0,0,0-.211.024,4.072,4.072,0,0,0-1.794.921v-1.266a5.859,5.859,0,0,0-3.989-5.556l-1.6-.539a1.676,1.676,0,0,1-.683-.433,1.693,1.693,0,0,1-.471-1.177V250.09l.544-.331a3.243,3.243,0,0,0,1.546-2.753V241.69a3.576,3.576,0,0,0-3.57-3.573H28.66a3.576,3.576,0,0,0-3.57,3.573v5.316a3.242,3.242,0,0,0,1.546,2.753l.545.332v1.723a1.711,1.711,0,0,1-.542,1.247,1.666,1.666,0,0,1-.614.364l-1.6.538a5.859,5.859,0,0,0-3.989,5.556v1.336a4.069,4.069,0,0,0-1.872-.992.884.884,0,0,0-.211-.024l-3.876.014-5.595-6.7a.9.9,0,0,0-.146-.139l-.257-2.564a4.521,4.521,0,0,0,2.075-3.8v-3.427c0-.1-.005-.189-.013-.283a.924.924,0,0,0-.053-.486.887.887,0,0,0-.041-.089A3.529,3.529,0,0,0,7.032,239.7h-2a3.527,3.527,0,0,0-3.524,3.523v3.427a4.49,4.49,0,0,0,.412,1.882c.009.021.018.042.028.063a4.548,4.548,0,0,0,1.195,1.532l-.388,2.846-.148.09a3.028,3.028,0,0,0-1.453,2.363L.5,263.943c0,.011,0,.022,0,.033s0,.025,0,.038v2.354a5.562,5.562,0,0,0,5.557,5.554h48.4a5.562,5.562,0,0,0,5.557-5.555v-2.354c0-.013,0-.025,0-.038Zm-6.53-22.42h2a1.674,1.674,0,0,1,1.672,1.671v3.424l-.963-.676v-.865a1.765,1.765,0,0,0-1.122-1.65l-2.967-1.174a1.671,1.671,0,0,1,1.38-.73Zm-1.672,2.605,2.53,1v.852a1.777,1.777,0,0,0,.756,1.453l1.377.966a2.671,2.671,0,0,1-4.662-1.78Zm2.673,7.014a4.509,4.509,0,0,0,1.142-.147l.149,1.093a5,5,0,0,0-2.049.011l.1-1.005a4.537,4.537,0,0,0,.657.048ZM42.271,261.691l4.2.015h0a.924.924,0,0,0,.71-.332l5.8-6.941a3.17,3.17,0,0,1,3.447-.1l.527.318a1.179,1.179,0,0,1,.564.921l.576,7.517h-4.51v-3.24l.557-.585a.926.926,0,1,0-1.34-1.277l-4.859,5.1H40.773a2.2,2.2,0,0,1,1.5-1.4Zm-6.695-5.974a4.009,4.009,0,0,1,2.729,3.8v3.569H31.758l1.258-1.268a.925.925,0,0,0,.226-.928l-1.823-5.825a9.2,9.2,0,0,0,1.6-.38,3.536,3.536,0,0,0,.957.493Zm-6.544-4.537a3.2,3.2,0,0,0,2.53,0v.634a3.562,3.562,0,0,0,.243,1.3,7.267,7.267,0,0,1-3.051.076,3.559,3.559,0,0,0,.277-1.372Zm1.206,6.311,1.07,3.42L30.228,262l-.962-1.072Zm-1.578-17.523h3.273a1.722,1.722,0,0,1,1.719,1.722v1.2l-4.469-1.438a.929.929,0,0,0-.712.06l-1.529.8v-.62a1.722,1.722,0,0,1,1.718-1.722Zm-1.718,4.43,2.043-1.066,4.668,1.5v2.172A1.381,1.381,0,0,1,33,248.178l-1.986,1.21a1.364,1.364,0,0,1-1.423,0l-1.986-1.21a1.381,1.381,0,0,1-.658-1.172Zm-1.924,11.319,1.6-.537a3.5,3.5,0,0,0,.837-.408,9.212,9.212,0,0,0,1.543.324l-1.648,5.82a.924.924,0,0,0,.2.87l1.168,1.3H22.29v-3.569A4.007,4.007,0,0,1,25.018,255.717ZM6.033,249.324a2.666,2.666,0,0,1-1.99-.891l1.377-.966a1.778,1.778,0,0,0,.756-1.453v-.852l2.529-1v2.492a2.674,2.674,0,0,1-2.672,2.671Zm-1-7.768h2a1.671,1.671,0,0,1,1.38.73l-2.967,1.174a1.765,1.765,0,0,0-1.122,1.65v.865l-.963.676v-3.424a1.673,1.673,0,0,1,1.672-1.671Zm1,9.62a4.53,4.53,0,0,0,.656-.048l.1,1.005a5,5,0,0,0-2.049-.01l.149-1.093a4.531,4.531,0,0,0,1.142.146ZM3,255.568a1.176,1.176,0,0,1,.564-.918l.527-.318a3.171,3.171,0,0,1,3.447.1l5.8,6.941a.926.926,0,0,0,.711.332h0l4.2-.015a2.2,2.2,0,0,1,1.5,1.4H12.578l-4.86-5.1a.926.926,0,1,0-1.34,1.277l.557.585v3.24H2.426Zm55.164,10.8a3.708,3.708,0,0,1-3.7,3.7H6.057a3.709,3.709,0,0,1-3.705-3.7v-1.429H6.935v.227a3.732,3.732,0,0,0,1.015,2.563A.926.926,0,1,0,9.3,266.46a1.883,1.883,0,0,1-.513-1.295v-3.374l2.479,2.6v.444a3.621,3.621,0,0,0,3.618,3.617h3.9a.926.926,0,1,0,0-1.851h-3.9a1.768,1.768,0,0,1-1.762-1.653H20.8a.943.943,0,0,0,.134-.011H39.589a.938.938,0,0,0,.134.011h7.863a1.768,1.768,0,0,1-1.762,1.653H22.746a.926.926,0,1,0,0,1.851H45.823a3.621,3.621,0,0,0,3.618-3.617v-.6c0-.013,0-.025,0-.038l2.293-2.407v3.374a1.883,1.883,0,0,1-.513,1.295.926.926,0,0,0,1.35,1.268,3.731,3.731,0,0,0,1.014-2.563v-.227h4.583Zm0,0" transform="translate(0 -208.726)" fill="#ffba00"/>
    <path id="Path_2246" data-name="Path 2246" d="M11.312,58.411h.155c.648,2.916,2.031,4.785,3.557,4.785s2.91-1.871,3.556-4.785H31.87c1.154,0,2.134-1.58,2.493-3.772a3.508,3.508,0,0,0,2.764,1.915c1.252,0,2.421-1.058,3.282-2.847.2,2.663,1.292,4.7,2.6,4.7H56.3c.648,2.915,2.03,4.785,3.555,4.785s2.909-1.871,3.557-4.785h.155c1.456,0,2.64-2.513,2.64-5.6V21.928c0-3.09-1.185-5.6-2.64-5.6h-7.5c-.512,0-.926.88-.926,1.965s.414,1.965.926,1.965h7.5c.435,0,.789.751.789,1.673V52.809c0,.922-.354,1.672-.789,1.672H63.3c-.668,0-1.271.836-1.537,2.132-.331,1.612-1.08,2.654-1.908,2.654s-1.576-1.042-1.907-2.655c-.266-1.294-.869-2.131-1.537-2.131h-13.4c-.435,0-.789-.75-.789-1.672V50.553h7.792c1.7,0,3.076-2.929,3.076-6.528V6.528c0-3.6-1.38-6.528-3.076-6.528H24.238c-1.7,0-3.077,2.929-3.077,6.528v9.8H11.312c-1.456,0-2.64,2.513-2.64,5.6v2.789c0,1.085.415,1.965.926,1.965s.926-.88.926-1.965V21.928c0-.922.354-1.673.789-1.673h9.849v23.77c0,3.6,1.38,6.528,3.077,6.528h8.421v2.256c0,.922-.354,1.672-.789,1.672H18.47c-.669,0-1.272.836-1.539,2.133-.33,1.611-1.078,2.653-1.907,2.653s-1.578-1.042-1.908-2.655c-.266-1.294-.869-2.131-1.537-2.131h-.267c-.435,0-.789-.75-.789-1.672V32.992c0-1.086-.414-1.965-.926-1.965s-.926.879-.926,1.965V52.809c0,3.089,1.185,5.6,2.64,5.6Zm11.7-14.386V6.528c0-1.433.55-2.6,1.225-2.6H50.014c.675,0,1.225,1.166,1.225,2.6v37.5c0,1.433-.549,2.6-1.225,2.6H41.446a.923.923,0,0,0-.317.059l-.027.01A3.039,3.039,0,0,0,39.733,49c-.451,2.2-1.475,3.627-2.607,3.627S34.97,51.2,34.519,49c-.3-1.442-.968-2.373-1.713-2.373H24.238c-.675,0-1.225-1.166-1.225-2.6Zm0,0" transform="translate(-7.163 0)" fill="#ffba00"/>
    <path id="Path_2247" data-name="Path 2247" d="M149.481,44.605H169.5a.926.926,0,1,0,0-1.851H149.481a.926.926,0,0,0,0,1.851Zm0,0" transform="translate(-129.78 -37.477)" fill="#ffba00"/>
    <path id="Path_2248" data-name="Path 2248" d="M149.481,83.141H169.5a.926.926,0,1,0,0-1.851H149.481a.926.926,0,0,0,0,1.851Zm0,0" transform="translate(-129.78 -71.256)" fill="#ffba00"/>
    <path id="Path_2249" data-name="Path 2249" d="M161.211,120.754a.926.926,0,0,0-.926-.926h-10.8a.926.926,0,0,0,0,1.851h10.8A.926.926,0,0,0,161.211,120.754Zm0,0" transform="translate(-129.78 -105.038)" fill="#ffba00"/>
  </g>
</svg>
