<svg xmlns="http://www.w3.org/2000/svg" width="72.157" height="71.196" viewBox="0 0 72.157 71.196">
  <g id="handshake" transform="translate(0.001 -0.5)">
    <path id="Path_2253" data-name="Path 2253" d="M71.862,115.865,59.785,100.177a1.415,1.415,0,0,0-1.881-.33l-7.8,4.959H39.937a1.4,1.4,0,0,0-.389.065l-7.885,2.27L23.481,104.9l-7.95-5.056a1.414,1.414,0,0,0-1.86.3L.313,116.7a1.415,1.415,0,0,0,.178,1.961l7,6.025,6.281,8.465a5,5,0,0,0,3.143,8.392,5.033,5.033,0,0,0-.058.765,5,5,0,0,0,5,5l.053,0c0,.034,0,.068,0,.1a5,5,0,0,0,5,5,5.1,5.1,0,0,0,.781-.061,5,5,0,0,0,8.509,3.044l.765-.765.321.259a5,5,0,0,0,8.474-3.672,4.992,4.992,0,0,0,5.076-5.073,5,5,0,0,0,5.075-5.078,5,5,0,0,0,4.271-7.721l4.586-9.605,6.9-5.933a1.415,1.415,0,0,0,.2-1.936ZM15.079,102.912l5.717,3.635L8.36,121.7l-4.983-4.289Zm.807,32.121,1.725-1.725c.052-.052.107-.1.164-.148a2.166,2.166,0,0,1,1.179-.478l.037,0c.062,0,.123-.008.186-.008a2.158,2.158,0,0,1,1.548.68,2.224,2.224,0,0,1-.1,3.078L18.955,138.1a2.17,2.17,0,0,1-3.069-3.07Zm4.439,8.806a2.17,2.17,0,0,1,0-3.069l3.345-3.345A2.193,2.193,0,0,1,26.137,137a2.163,2.163,0,0,1,1.2,2.241,2.29,2.29,0,0,1-.646,1.307l-3.293,3.292a2.17,2.17,0,0,1-3.07,0Zm5.052,5.1a2.17,2.17,0,0,1,0-3.069l3.345-3.345a2.195,2.195,0,0,1,2.624-.344,2.16,2.16,0,0,1,1.036,2.193,2.293,2.293,0,0,1-.643,1.273l-3.292,3.292a2.17,2.17,0,0,1-3.07,0Zm5.754,4.448a2.173,2.173,0,0,1,0-3.069l1.725-1.725c.052-.052.107-.1.163-.148l0,0a2.162,2.162,0,0,1,.962-.447l.025,0c.061-.011.122-.02.184-.025l.075,0c.051,0,.1-.006.152-.005a2.156,2.156,0,0,1,1.548.68,1.958,1.958,0,0,1,.14.165,2.24,2.24,0,0,1-.244,2.922L34.2,153.389a2.173,2.173,0,0,1-3.069,0ZM57.524,137.6a2.172,2.172,0,0,1-3.069,0,1.287,1.287,0,0,0-.1-.086l-9.1-9.194a1.415,1.415,0,0,0-2.012,1.991l9.2,9.292,0,0a2.171,2.171,0,1,1-3.07,3.07l-6.152-6.216a1.415,1.415,0,1,0-2.011,1.991l6.058,6.121a1.34,1.34,0,0,0,.1.111,2.171,2.171,0,1,1-3.07,3.069l-3.358-3.393a1.415,1.415,0,0,0-2.012,1.99l3.264,3.3a1.263,1.263,0,0,0,.1.111,2.17,2.17,0,1,1-3.069,3.07,3.13,3.13,0,0,0-.321-.256c-.092-.07-.117-.119-.07-.232s.117-.217.164-.331.094-.259.134-.391a5.1,5.1,0,0,0,.183-2.177,4.949,4.949,0,0,0-4.218-4.259,5.046,5.046,0,0,0-1.212-4.553,4.963,4.963,0,0,0-3.564-1.564h-.149a4.952,4.952,0,0,0-4.9-5.1,5.087,5.087,0,0,0-1.207.128,4.982,4.982,0,0,0-8.268-2.961l-5.469-7.37,13.085-15.941,4.17,1.141-5.446,9.61a5,5,0,0,0,1.886,6.815q.109.062.22.118l.017.008a5.034,5.034,0,0,0,.6.252,5,5,0,0,0,5.978-2.263l3.539-6.246,6.319.448,16.827,16.827a2.174,2.174,0,0,1,0,3.07Zm.586-6.486L42.324,115.327a1.254,1.254,0,0,0-.094-.086,1.416,1.416,0,0,0-.807-.325l-7.737-.549a1.438,1.438,0,0,0-1.331.714L28.377,122.1a2.17,2.17,0,1,1-3.777-2.14l5.312-9.375,2.153-.619.042-.014,8.034-2.32h9.707l12.118,15.4Zm5.708-10.293L52.612,106.565l5.719-3.637L68.8,116.53Zm0,0" transform="translate(0 -85.155)" fill="#ffba00"/>
    <path id="Path_2254" data-name="Path 2254" d="M301.56,41.366a1.411,1.411,0,0,0,1-.415l9.665-9.665a1.415,1.415,0,1,0-2-2L300.56,38.95a1.415,1.415,0,0,0,1,2.416Zm0,0" transform="translate(-257.846 -24.372)" fill="#ffba00"/>
    <path id="Path_2255" data-name="Path 2255" d="M133.275,40.952a1.415,1.415,0,0,0,2-2l-9.665-9.665a1.415,1.415,0,0,0-2,2Zm0,0" transform="translate(-105.834 -24.373)" fill="#ffba00"/>
    <path id="Path_2256" data-name="Path 2256" d="M247.376,51.527a1.415,1.415,0,0,0,1.415-1.415v-8a1.415,1.415,0,0,0-2.83,0v8A1.415,1.415,0,0,0,247.376,51.527Zm0,0" transform="translate(-211.298 -34.534)" fill="#ffba00"/>
    <path id="Path_2257" data-name="Path 2257" d="M246.091,2.452A1.414,1.414,0,1,0,248.258.789a1.414,1.414,0,0,0-2.167,1.664Zm0,0" transform="translate(-211.319 0)" fill="#ffba00"/>
  </g>
</svg>
