<svg xmlns="http://www.w3.org/2000/svg" width="430.879" height="664.435" viewBox="0 0 430.879 664.435">
  <g id="Group_1291" data-name="Group 1291" transform="translate(-5398.154 434.898)">
    <rect id="Rectangle_282" data-name="Rectangle 282" width="10.793" height="247.31" transform="translate(5491.574 -17.767) rotate(10.732)" fill="#1e1f39"/>
    <path id="Path_2212" data-name="Path 2212" d="M3977.076,2676.181h12.755L3942.3,2430.038l-10.6,2.01Z" transform="translate(1830.85 -2447.827)" fill="#1e1f39"/>
    <path id="Path_2213" data-name="Path 2213" d="M3461.5,2676.181h12.755l-47.532-246.143-10.6,2.01Z" transform="translate(2112.91 -2447.827)" fill="#1e1f39"/>
    <path id="Path_2214" data-name="Path 2214" d="M3762.8,2677.515l-10.355.124,45.57-245.162,10.6,2.01Z" transform="translate(1928.916 -2449.162)" fill="#1e1f39"/>
    <path id="Path_2215" data-name="Path 2215" d="M3374.451,1696.855c41.99,4.5,96.33,9.241,150.881,101.815,59.623,101.179,28.237,252.315-18.821,294.313s-200.753,93.856-329.953,16.222c0,0-78.012-47.047-37.975-125.129,61.612-120.158,52.906-145.214,80.454-192.3S3285.32,1687.31,3374.451,1696.855Z" transform="translate(2271 -2046.142)" fill="#fae0b2"/>
    <path id="Path_2216" data-name="Path 2216" d="M3555.95,1808.594c-37.235-63.185-74.368-85.45-107.544-94.651,12.833,13.28,25.842,30.364,38.864,52.462,59.622,101.178,28.237,252.314-18.822,294.313-41.732,37.245-167.326,82.228-285.33,37.793a119.888,119.888,0,0,0,24.057,20.618c129.2,77.634,282.894,25.777,329.953-16.222S3615.572,1909.773,3555.95,1808.594Z" transform="translate(2240.383 -2056.065)" fill="#ffba00"/>
    <path id="Path_2224" data-name="Path 2224" d="M3362.477,2037.671l-10.792,32.378,32.891-12.937Z" transform="translate(2148.164 -2233.171)" fill="#f79c8d"/>
    <path id="Path_2225" data-name="Path 2225" d="M3396.5,1824.937c-2.193.091-8.2,2.094-16.988,18.643-11.221,21.134-27.62,84.975-27.62,84.975l48.952,18.168,6.289-13.325,10.358-102.586S3397.1,1824.912,3396.5,1824.937Z" transform="translate(2148.052 -2116.788)" fill="#282a58"/>
    <path id="Path_2226" data-name="Path 2226" d="M3511.337,1804.619c-14,.019-48.633,4.089-64.709,9.207,0,0-11.809,101.157,10.632,178.022,5.024,17.206-4.155,71.327-4.155,71.327l145.05-1.907s-17.184-130.84-10.711-151.973,6.628-94.788,6.628-94.788-.993-.154-32.589-5.6A329.486,329.486,0,0,0,3511.337,1804.619Z" transform="translate(2097.92 -2105.672)" fill="#1e1f39"/>
    <path id="Path_2227" data-name="Path 2227" d="M3616.5,2790.023s-3.208,36.912-9.109,47.133.31,27.6.621,29.983,12.421,5.792,31.674,3.748,18.942-6.473,17.39-13.629-11.8-16.354-12.421-23.169,5.9-31.346,5.9-31.346Z" transform="translate(2009.655 -2644.769)" fill="#f7a491"/>
    <path id="Path_2228" data-name="Path 2228" d="M3342,2305.485s-100.128-5.541-122.487,7.955,4.043,41.208,4.043,41.208,81.515,35.321,217.985,43.17c32.316,1.859,35.1-83.977,29.059-91.08S3342,2305.485,3342,2305.485Z" transform="translate(2225.387 -2378.448)" fill="#24264b"/>
    <path id="Path_2229" data-name="Path 2229" d="M3639.573,2933.366c19.825-2.105,17.374-11.812,15.775-19.18-1-4.613-6.688-10.052-10.078-15.2-1.772,1.407-4.655,3.891-13.264,6.425-8.94,2.632-21.2-2.577-29.005-5.839a95.13,95.13,0,0,0-2.651,25.486C3600.668,2927.519,3619.748,2935.471,3639.573,2933.366Z" transform="translate(2012.174 -2704.383)" fill="#355389"/>
    <path id="Path_2230" data-name="Path 2230" d="M3634.144,2378.072c-4,30.168-23.807,180.354-23.807,180.354l45.958,5.679s56.516-196.027,53.618-226.01-24.053-32.506-24.053-32.506S3644.732,2298.211,3634.144,2378.072Z" transform="translate(2006.66 -2379.645)" fill="#1e1f39"/>
    <path id="Path_2231" data-name="Path 2231" d="M3518.011,1515.326s15.27-16.1,27.552,3.485c0,0,9.461-5.311,16.1,4.15,0,0,17.095-5.145,21.244,20.414,0,0,8.8-1.659,9.959,8.8a25.874,25.874,0,0,1-4.149,17.427s4.941,3.706,2.7,13.319c-1.908,8.174-8.672,9.419-8.672,9.419s-1.826,13.776-7.8,17.925-14.108,2.158-14.108,2.158-2.157,7.469-9.128,6.805-15.6-7.3-23.4-4.315-28.049-.166-28.049-.166-22.738-10.124-15.933-33.361c0,0-11.95-10.788-1.494-23.734,0,0-7.635-20.249,7.469-32.2S3518.011,1515.326,3518.011,1515.326Z" transform="translate(2078.765 -1944)" fill="#07345a"/>
    <path id="Path_2232" data-name="Path 2232" d="M3565.282,1725.159l-2.764,20.507s-6.191,29.543,1.774,35.239,33.876-36.082,33.876-36.082l-2.737-51.962Z" transform="translate(2034.075 -2044.531)" fill="#f7a491"/>
    <path id="Path_2233" data-name="Path 2233" d="M3599.593,1709.7c-6.58,17.723-22.252,28.618-33.377,32.844l2.344-17.386,30.149-32.3Z" transform="translate(2030.797 -2044.531)" fill="#f47458"/>
    <path id="Path_2234" data-name="Path 2234" d="M3551.292,1570.539a27.405,27.405,0,0,0-35.865,21.838,207.183,207.183,0,0,0-2.223,26.31c-.435,23.951,11.964,47.261,22.84,47.261s40.934-15.5,42.022-49.507C3578.738,1595.449,3568.257,1576.379,3551.292,1570.539Z" transform="translate(2059.805 -1976.801)" fill="#f7a491"/>
    <path id="Path_2235" data-name="Path 2235" d="M3638.733,1668.057c0,5.284,3.5,9.567,7.823,9.567s7.823-4.283,7.823-9.567-3.5-9.566-7.823-9.566S3638.733,1662.774,3638.733,1668.057Z" transform="translate(1991.125 -2025.728)" fill="#f7a491"/>
    <path id="Path_2236" data-name="Path 2236" d="M3478.969,1537.179c-11.234,8.9-15.171,22.422-8.793,30.2s20.655,6.874,31.889-2.025,15.172-22.423,8.793-30.2S3490.2,1528.28,3478.969,1537.179Z" transform="translate(2085.01 -1955.358)" fill="#07345a"/>
    <path id="Path_2237" data-name="Path 2237" d="M3575.874,1851.089c-13.562-5.07-20.2,116.712-22.025,166.838-24.017,2.3-65.877.018-76.3-.763-4.9-.367-16.206-4.492-21.081-5.129-5-.653-9.525-.991-11.981-.566-.9.156-25.934,10.359-28.077,12.6-2.656,2.775-9.835,9.773-8.623,12.8s13.808-8.433,13.808-8.433l6.156-3.442c-7.664,7.462-22.281,17.288-20.176,20.866,2.053,3.49,15.239-6.483,24.637-13.279-8.06,7.256-18.074,20.24-15.767,22.264,2.074,1.819,13.464-13.213,25.638-17.542,4.511-1.6,9.008,2.838,12.556,3.375,2.608.395,6.635,1.233,9.193.51l13.181-3.725c4.49.4,4.6,3.052,9.137,4.014,5.264,1.116,13.9,2.292,20.6,3.925,38.6,9.4,51.477,13.765,63.3,13.757C3605.849,2059.135,3607.926,1863.072,3575.874,1851.089Z" transform="translate(2117.699 -2131.011)" fill="#f7a491"/>
    <path id="Path_2238" data-name="Path 2238" d="M3769.788,1951.677c2.541-51.344,2.169-114.629-26.711-125.426-11.4-4.26-31.484,21.355-27.871,126.469C3730.623,1953.989,3753.258,1955.01,3769.788,1951.677Z" transform="translate(1949.523 -2117.266)" fill="#282a58"/>
    <path id="Path_2239" data-name="Path 2239" d="M3479.494,2055h2.944l44.256,108.388-3.048-.462Z" transform="translate(2078.241 -2242.652)" fill="#f79c8d"/>
    <path id="Path_2240" data-name="Path 2240" d="M3276.192,2859.733s4.01,12.813-3.17,21.287-37.018,16.788-40.934,21.377-3.62,8.5-3.62,8.5l83.744-2.3-.912-25.205-3.857-18.113Z" transform="translate(2215.577 -2682.906)" fill="#f7a491"/>
    <path id="Path_2241" data-name="Path 2241" d="M3252.2,2913.742s21.518,8.675,31.912,3.539,10.081-6.559,13.088-4.644,4.085,25.543,4.085,25.543l-94.167,2.758c-6.553-.15-9.866-4.96-4.542-9.078,3.65-2.823,7.869-4.713,10.267-6.084C3220.212,2921.568,3252.2,2913.742,3252.2,2913.742Z" transform="translate(2231.185 -2711.403)" fill="#355389"/>
    <path id="Path_2242" data-name="Path 2242" d="M3251.8,2331.618c-6.472-13.574-21.193-31.249-47.095-20.6-24.7,10.153-31.334,35.1-23.54,60.656s59.106,175.752,60.894,196.4l40.969.271s-7.445-118.932-9.272-147.679C3272,2393,3263,2355.112,3251.8,2331.618Z" transform="translate(2243.142 -2380.927)" fill="#1e1f39"/>
    <path id="Path_2243" data-name="Path 2243" d="M3183.209,2055h136.95a8.93,8.93,0,0,1,8.262,5.542l42.168,102.846h75.5a3.822,3.822,0,0,1,3.823,3.82h0a3.822,3.822,0,0,1-3.823,3.82H3231.207a15,15,0,0,1-13.684-8.857l-42.46-94.584A8.93,8.93,0,0,1,3183.209,2055Z" transform="translate(2245.225 -2242.652)" fill="#edb92c"/>
    <path id="Path_2244" data-name="Path 2244" d="M3356.574,2175.2c.925,4.619,4.954,7.709,9,6.9s6.575-5.209,5.65-9.829-4.955-7.708-9-6.9S3355.649,2170.581,3356.574,2175.2Z" transform="translate(2145.593 -2302.963)" fill="#fff"/>
  </g>
</svg>
