<svg id="web-design" xmlns="http://www.w3.org/2000/svg" width="63.517" height="63.517" viewBox="0 0 63.517 63.517">
  <g id="Group_1298" data-name="Group 1298" transform="translate(30.378 53.391)">
    <g id="Group_1297" data-name="Group 1297" transform="translate(0 0)">
      <rect id="Rectangle_286" data-name="Rectangle 286" width="3" height="2" transform="translate(-0.378 -0.391)" fill="#ffba00"/>
    </g>
  </g>
  <g id="Group_1300" data-name="Group 1300">
    <g id="Group_1299" data-name="Group 1299">
      <path id="Path_2250" data-name="Path 2250" d="M62.458,55.048H61.4V16.938A4.234,4.234,0,0,0,57.165,12.7H50.813V4.234A4.234,4.234,0,0,0,46.579,0H16.938A4.234,4.234,0,0,0,12.7,4.234V12.7H6.352a4.234,4.234,0,0,0-4.234,4.234v38.11H1.059A1.059,1.059,0,0,0,0,56.106v3.176a4.234,4.234,0,0,0,4.234,4.234H59.282a4.234,4.234,0,0,0,4.234-4.234V56.106A1.059,1.059,0,0,0,62.458,55.048ZM14.821,4.234a2.117,2.117,0,0,1,2.117-2.117H46.579A2.117,2.117,0,0,1,48.7,4.234V8.469H14.821Zm0,6.352H48.7v30.7A2.117,2.117,0,0,1,46.579,43.4H16.938a2.117,2.117,0,0,1-2.117-2.117ZM16.938,45.52H46.579a4.234,4.234,0,0,0,4.234-4.234V19.055h4.234V48.7H8.469V19.055H12.7V41.286A4.234,4.234,0,0,0,16.938,45.52ZM4.234,16.938a2.117,2.117,0,0,1,2.117-2.117H12.7v2.117H7.41A1.059,1.059,0,0,0,6.352,18V49.755A1.059,1.059,0,0,0,7.41,50.813h48.7a1.059,1.059,0,0,0,1.059-1.059V18a1.059,1.059,0,0,0-1.059-1.059H50.813V14.821h6.352a2.117,2.117,0,0,1,2.117,2.117v38.11h-18a1.059,1.059,0,0,0-.748.309L38.73,57.165H24.786l-1.807-1.808a1.059,1.059,0,0,0-.748-.309h-18ZM61.4,59.282A2.117,2.117,0,0,1,59.282,61.4H4.234a2.117,2.117,0,0,1-2.117-2.117V57.165H21.793L23.6,58.972a1.059,1.059,0,0,0,.748.31H39.169a1.058,1.058,0,0,0,.748-.31l1.807-1.807H61.4Z" fill="#ffba00"/>
    </g>
  </g>
  <g id="Group_1302" data-name="Group 1302" transform="translate(18.411 34.06)">
    <g id="Group_1301" data-name="Group 1301" transform="translate(0 0)">
      <rect id="Rectangle_287" data-name="Rectangle 287" width="27" height="2" transform="translate(-0.411 -0.06)" fill="#ffba00"/>
    </g>
  </g>
  <g id="Group_1304" data-name="Group 1304" transform="translate(18.411 37.742)">
    <g id="Group_1303" data-name="Group 1303" transform="translate(0 0)">
      <rect id="Rectangle_288" data-name="Rectangle 288" width="25" height="3" transform="translate(-0.411 0.258)" fill="#ffba00"/>
    </g>
  </g>
  <g id="Group_1306" data-name="Group 1306" transform="translate(23.934 29.457)">
    <g id="Group_1305" data-name="Group 1305" transform="translate(0 0)">
      <rect id="Rectangle_289" data-name="Rectangle 289" width="21" height="2" transform="translate(0.066 -0.457)" fill="#ffba00"/>
    </g>
  </g>
  <g id="Group_1308" data-name="Group 1308" transform="translate(16.57 4.603)">
    <g id="Group_1307" data-name="Group 1307" transform="translate(0)">
      <rect id="Rectangle_290" data-name="Rectangle 290" width="2" height="1" transform="translate(0.43 0.397)" fill="#ffba00"/>
    </g>
  </g>
  <g id="Group_1310" data-name="Group 1310" transform="translate(21.172 4.603)">
    <g id="Group_1309" data-name="Group 1309">
      <rect id="Rectangle_291" data-name="Rectangle 291" width="2" height="1" transform="translate(-0.172 0.397)" fill="#ffba00"/>
    </g>
  </g>
  <g id="Group_1312" data-name="Group 1312" transform="translate(25.775 4.603)">
    <g id="Group_1311" data-name="Group 1311" transform="translate(0)">
      <rect id="Rectangle_292" data-name="Rectangle 292" width="2" height="1" transform="translate(0.225 0.397)" fill="#ffba00"/>
    </g>
  </g>
  <g id="Group_1314" data-name="Group 1314" transform="translate(20.252 29.457)">
    <g id="Group_1313" data-name="Group 1313" transform="translate(0 0)">
      <rect id="Rectangle_293" data-name="Rectangle 293" width="2" height="2" transform="translate(-0.252 -0.457)" fill="#ffba00"/>
    </g>
  </g>
  <g id="Group_1316" data-name="Group 1316" transform="translate(22.231 16.091)">
    <g id="Group_1315" data-name="Group 1315">
      <path id="Path_2251" data-name="Path 2251" d="M173.928,123.294l-1.27-1.694-4.234,3.176a1.059,1.059,0,0,0,0,1.694l4.234,3.176,1.27-1.694-3.1-2.329Z" transform="translate(-167.999 -121.6)" fill="#ffba00"/>
    </g>
  </g>
  <g id="Group_1318" data-name="Group 1318" transform="translate(35.358 16.091)">
    <g id="Group_1317" data-name="Group 1317">
      <path id="Path_2252" data-name="Path 2252" d="M272.917,124.988a1.064,1.064,0,0,0-.212-.212L268.47,121.6l-1.27,1.694,3.1,2.329-3.1,2.329,1.27,1.694,4.234-3.176A1.059,1.059,0,0,0,272.917,124.988Z" transform="translate(-267.2 -121.6)" fill="#ffba00"/>
    </g>
  </g>
  <g id="Group_1320" data-name="Group 1320" transform="translate(28.658 14.43)">
    <g id="Group_1319" data-name="Group 1319" transform="translate(0 0)">
      <rect id="Rectangle_294" data-name="Rectangle 294" width="11.401" height="2.117" transform="translate(0 10.585) rotate(-68.191)" fill="#ffba00"/>
    </g>
  </g>
</svg>
